<mxfile host="app.diagrams.net" agent="Mozilla/5.0 (Macintosh; Intel Mac OS X 10_15_7) AppleWebKit/537.36 (KHTML, like Gecko) Chrome/135.0.0.0 Safari/537.36" version="26.2.14">
  <diagram name="Green Trial Design Framework" id="green-trial-framework">
    <mxGraphModel dx="1218" dy="815" grid="1" gridSize="10" guides="1" tooltips="1" connect="1" arrows="1" fold="1" page="1" pageScale="1" pageWidth="1100" pageHeight="850" math="0" shadow="0">
      <root>
        <mxCell id="0" />
        <mxCell id="1" parent="0" />
        <mxCell id="2" value="&lt;font style=&quot;font-size: 24px;&quot; face=&quot;Arial&quot;&gt;&lt;b&gt;Green Trial Design Framework&lt;/b&gt;&lt;/font&gt;" style="text;html=1;strokeColor=none;fillColor=none;align=center;verticalAlign=middle;whiteSpace=wrap;rounded=0;fontColor=#00539B;shadow=0;" parent="1" vertex="1">
          <mxGeometry x="270" y="20" width="560" height="30" as="geometry" />
        </mxCell>
        <mxCell id="3" value="&lt;font style=&quot;font-size: 18px;&quot; face=&quot;Arial&quot;&gt;&lt;b&gt;Sustainable&lt;br&gt;Clinical&lt;br&gt;Trial&lt;/b&gt;&lt;/font&gt;" style="ellipse;whiteSpace=wrap;html=1;aspect=fixed;fillColor=#00539B;strokeColor=#00539B;fontColor=#FFFFFF;shadow=1;" parent="1" vertex="1">
          <mxGeometry x="450" y="275" width="150" height="150" as="geometry" />
        </mxCell>
        <mxCell id="4" value="" style="ellipse;whiteSpace=wrap;html=1;aspect=fixed;fillColor=#228B22;strokeColor=#228B22;opacity=20;" parent="1" vertex="1">
          <mxGeometry x="316" y="80" width="180" height="180" as="geometry" />
        </mxCell>
        <mxCell id="5" value="&lt;font&gt;&lt;b&gt;Protocol Design&lt;/b&gt;&lt;/font&gt;" style="text;html=1;strokeColor=none;fillColor=none;align=center;verticalAlign=middle;whiteSpace=wrap;rounded=0;fontColor=#228B22;fontSize=15;" parent="1" vertex="1">
          <mxGeometry x="347" y="99" width="120" height="30" as="geometry" />
        </mxCell>
        <mxCell id="6" value="" style="shape=image;html=1;verticalAlign=top;verticalLabelPosition=bottom;labelBackgroundColor=#ffffff;imageAspect=0;aspect=fixed;image=https://cdn1.iconfinder.com/data/icons/hawcons/32/699748-icon-58-document-128.png;imageBackground=none;" parent="1" vertex="1">
          <mxGeometry x="335" y="185" width="30" height="30" as="geometry" />
        </mxCell>
        <mxCell id="7" value="• Streamlined protocols&#xa;• Risk-proportionate monitoring&#xa;• Reduced lab testing frequency" style="text;strokeColor=none;fillColor=none;align=left;verticalAlign=middle;spacingLeft=4;spacingRight=4;overflow=hidden;points=[[0,0.5],[1,0.5]];portConstraint=eastwest;rotatable=0;whiteSpace=wrap;html=1;fontSize=13;fontStyle=1" parent="1" vertex="1">
          <mxGeometry x="326" y="133" width="170" height="85" as="geometry" />
        </mxCell>
        <mxCell id="8" value="" style="ellipse;whiteSpace=wrap;html=1;aspect=fixed;fillColor=#FF8C00;strokeColor=#FF8C00;opacity=20;" parent="1" vertex="1">
          <mxGeometry x="570" y="80" width="180" height="180" as="geometry" />
        </mxCell>
        <mxCell id="9" value="&lt;font&gt;&lt;b&gt;Site Selection&lt;/b&gt;&lt;/font&gt;" style="text;html=1;strokeColor=none;fillColor=none;align=center;verticalAlign=middle;whiteSpace=wrap;rounded=0;fontColor=#FF8C00;fontSize=15;" parent="1" vertex="1">
          <mxGeometry x="600" y="100" width="120" height="30" as="geometry" />
        </mxCell>
        <mxCell id="10" value="" style="shape=image;html=1;verticalAlign=top;verticalLabelPosition=bottom;labelBackgroundColor=#ffffff;imageAspect=0;aspect=fixed;image=https://cdn1.iconfinder.com/data/icons/hawcons/32/699733-icon-43-notebook-128.png" parent="1" vertex="1">
          <mxGeometry x="685" y="185" width="30" height="30" as="geometry" />
        </mxCell>
        <mxCell id="11" value="• Proximity to participants&#xa;• Green certification status&#xa;• Local lab capabilities" style="text;strokeColor=none;fillColor=none;align=left;verticalAlign=middle;spacingLeft=4;spacingRight=4;overflow=hidden;points=[[0,0.5],[1,0.5]];portConstraint=eastwest;rotatable=0;whiteSpace=wrap;html=1;fontSize=13;fontStyle=1" parent="1" vertex="1">
          <mxGeometry x="590" y="130" width="170" height="90" as="geometry" />
        </mxCell>
        <mxCell id="12" value="" style="ellipse;whiteSpace=wrap;html=1;aspect=fixed;fillColor=#B22222;strokeColor=#B22222;opacity=20;" parent="1" vertex="1">
          <mxGeometry x="610" y="380" width="190" height="190" as="geometry" />
        </mxCell>
        <mxCell id="13" value="&lt;font&gt;&lt;b&gt;Digital Solutions&lt;/b&gt;&lt;/font&gt;" style="text;html=1;strokeColor=none;fillColor=none;align=center;verticalAlign=middle;whiteSpace=wrap;rounded=0;fontColor=#B22222;fontSize=15;" parent="1" vertex="1">
          <mxGeometry x="640" y="405" width="120" height="30" as="geometry" />
        </mxCell>
        <mxCell id="14" value="" style="shape=image;html=1;verticalAlign=top;verticalLabelPosition=bottom;labelBackgroundColor=#ffffff;imageAspect=0;aspect=fixed;image=https://cdn1.iconfinder.com/data/icons/hawcons/32/699966-icon-2-tablet-128.png" parent="1" vertex="1">
          <mxGeometry x="685" y="435" width="30" height="30" as="geometry" />
        </mxCell>
        <mxCell id="15" value="• Remote monitoring&#xa;• E-consent &amp;amp; paperless data&#xa;• Telemedicine visits" style="text;strokeColor=none;fillColor=none;align=left;verticalAlign=middle;spacingLeft=4;spacingRight=4;overflow=hidden;points=[[0,0.5],[1,0.5]];portConstraint=eastwest;rotatable=0;whiteSpace=wrap;html=1;fontSize=13;fontStyle=1" parent="1" vertex="1">
          <mxGeometry x="616" y="443" width="170" height="75" as="geometry" />
        </mxCell>
        <mxCell id="16" value="" style="ellipse;whiteSpace=wrap;html=1;aspect=fixed;fillColor=#87CEFA;strokeColor=#00539B;opacity=20;" parent="1" vertex="1">
          <mxGeometry x="240" y="375" width="200" height="200" as="geometry" />
        </mxCell>
        <mxCell id="17" value="&lt;font&gt;&lt;b&gt;Lab &amp;amp; Operations&lt;/b&gt;&lt;/font&gt;" style="text;html=1;strokeColor=none;fillColor=none;align=center;verticalAlign=middle;whiteSpace=wrap;rounded=0;fontColor=#00539B;fontSize=15;" parent="1" vertex="1">
          <mxGeometry x="290" y="400" width="120" height="30" as="geometry" />
        </mxCell>
        <mxCell id="18" value="" style="shape=image;html=1;verticalAlign=top;verticalLabelPosition=bottom;labelBackgroundColor=#ffffff;imageAspect=0;aspect=fixed;image=https://cdn1.iconfinder.com/data/icons/hawcons/32/699747-icon-57-document-text-128.png" parent="1" vertex="1">
          <mxGeometry x="335" y="435" width="30" height="30" as="geometry" />
        </mxCell>
        <mxCell id="19" value="• Green lab certification&#xa;• Freezers at -70°C vs -80°C&#xa;• Reduced single-use plastics" style="text;strokeColor=none;fillColor=none;align=left;verticalAlign=middle;spacingLeft=4;spacingRight=4;overflow=hidden;points=[[0,0.5],[1,0.5]];portConstraint=eastwest;rotatable=0;whiteSpace=wrap;html=1;fontSize=13;fontStyle=1" parent="1" vertex="1">
          <mxGeometry x="256" y="431" width="170" height="95" as="geometry" />
        </mxCell>
        <mxCell id="20" value="" style="ellipse;whiteSpace=wrap;html=1;aspect=fixed;fillColor=#FFD700;strokeColor=#FF8C00;opacity=20;" parent="1" vertex="1">
          <mxGeometry x="180" y="225" width="150" height="150" as="geometry" />
        </mxCell>
        <mxCell id="21" value="&lt;font&gt;&lt;b&gt;Supply Chain&lt;/b&gt;&lt;/font&gt;" style="text;html=1;strokeColor=none;fillColor=none;align=center;verticalAlign=middle;whiteSpace=wrap;rounded=0;fontColor=#FF8C00;fontSize=15;" parent="1" vertex="1">
          <mxGeometry x="210" y="240" width="100" height="20" as="geometry" />
        </mxCell>
        <mxCell id="22" value="• Local sourcing&#xa;• Batch shipments&#xa;• Lightweight packaging" style="text;strokeColor=none;fillColor=none;align=left;verticalAlign=middle;spacingLeft=4;spacingRight=4;overflow=hidden;points=[[0,0.5],[1,0.5]];portConstraint=eastwest;rotatable=0;whiteSpace=wrap;html=1;fontSize=13;fontStyle=1" parent="1" vertex="1">
          <mxGeometry x="196" y="265" width="110" height="85" as="geometry" />
        </mxCell>
        <mxCell id="23" value="" style="ellipse;whiteSpace=wrap;html=1;aspect=fixed;fillColor=#90EE90;strokeColor=#228B22;opacity=20;" parent="1" vertex="1">
          <mxGeometry x="700" y="220" width="170" height="170" as="geometry" />
        </mxCell>
        <mxCell id="24" value="&lt;font&gt;&lt;b&gt;Energy Management&lt;/b&gt;&lt;/font&gt;" style="text;html=1;strokeColor=none;fillColor=none;align=center;verticalAlign=middle;whiteSpace=wrap;rounded=0;fontColor=#228B22;fontSize=15;" parent="1" vertex="1">
          <mxGeometry x="740" y="240" width="100" height="20" as="geometry" />
        </mxCell>
        <mxCell id="25" value="• Renewable energy&#xa;• Equipment shutdown&#xa;• Energy-efficient IT" style="text;strokeColor=none;fillColor=none;align=left;verticalAlign=middle;spacingLeft=4;spacingRight=4;overflow=hidden;points=[[0,0.5],[1,0.5]];portConstraint=eastwest;rotatable=0;whiteSpace=wrap;html=1;fontSize=13;fontStyle=1" parent="1" vertex="1">
          <mxGeometry x="726" y="270" width="130" height="100" as="geometry" />
        </mxCell>
        <mxCell id="26" value="" style="rounded=1;whiteSpace=wrap;html=1;fillColor=#00539B;strokeColor=#00539B;opacity=20;shadow=1;" parent="1" vertex="1">
          <mxGeometry x="395" y="570" width="260" height="80" as="geometry" />
        </mxCell>
        <mxCell id="27" value="&lt;font face=&quot;Arial&quot;&gt;&lt;b&gt;Carbon Footprint Tracking&lt;/b&gt;&lt;/font&gt;" style="text;html=1;strokeColor=none;fillColor=none;align=center;verticalAlign=middle;whiteSpace=wrap;rounded=0;fontColor=#00539B;fontSize=15;" parent="1" vertex="1">
          <mxGeometry x="430" y="580" width="200" height="20" as="geometry" />
        </mxCell>
        <mxCell id="28" value="Measure → Reduce → Offset → Report" style="text;html=1;strokeColor=none;fillColor=none;align=center;verticalAlign=middle;whiteSpace=wrap;rounded=0;fontFamily=Arial;fontStyle=1;fontSize=14;" parent="1" vertex="1">
          <mxGeometry x="395" y="610" width="260" height="20" as="geometry" />
        </mxCell>
        <mxCell id="101" value="" style="ellipse;whiteSpace=wrap;html=1;aspect=fixed;fillColor=none;strokeColor=#00539B;opacity=30;dashed=1;strokeWidth=2;" parent="1" vertex="1">
          <mxGeometry x="405" y="230" width="240" height="240" as="geometry" />
        </mxCell>
        <mxCell id="35" value="" style="endArrow=none;html=1;rounded=0;entryX=0.5;entryY=0;entryDx=0;entryDy=0;exitX=0.5;exitY=1;exitDx=0;exitDy=0;strokeWidth=2;strokeColor=#00539B;opacity=50;" parent="1" source="3" target="26" edge="1">
          <mxGeometry width="50" height="50" relative="1" as="geometry">
            <mxPoint x="520" y="370" as="sourcePoint" />
            <mxPoint x="570" y="320" as="targetPoint" />
          </mxGeometry>
        </mxCell>
        <mxCell id="102" value="" style="ellipse;whiteSpace=wrap;html=1;aspect=fixed;fillColor=none;strokeColor=#00539B;opacity=15;dashed=1;strokeWidth=1.5;" parent="1" vertex="1">
          <mxGeometry x="375" y="200" width="300" height="300" as="geometry" />
        </mxCell>
        <mxCell id="36" value="&lt;b&gt;Key Benefits&lt;/b&gt;" style="swimlane;fontStyle=1;childLayout=stackLayout;horizontal=1;startSize=30;horizontalStack=0;resizeParent=1;resizeParentMax=0;resizeLast=0;collapsible=1;marginBottom=0;whiteSpace=wrap;html=1;fillColor=#228B22;fontColor=#FFFFFF;shadow=1;rounded=1;fontSize=13;fontFamily=Arial;" parent="1" vertex="1">
          <mxGeometry x="860" y="460" width="180" height="150" as="geometry" />
        </mxCell>
        <mxCell id="37" value="Reduced operational costs" style="text;strokeColor=none;fillColor=#E8F5E9;align=left;verticalAlign=middle;spacingLeft=4;spacingRight=4;overflow=hidden;points=[[0,0.5],[1,0.5]];portConstraint=eastwest;rotatable=0;whiteSpace=wrap;html=1;fontStyle=1;fontFamily=Arial;fontSize=13;" parent="36" vertex="1">
          <mxGeometry y="30" width="180" height="30" as="geometry" />
        </mxCell>
        <mxCell id="38" value="Lower carbon footprint" style="text;strokeColor=none;fillColor=#FFFFFF;align=left;verticalAlign=middle;spacingLeft=4;spacingRight=4;overflow=hidden;points=[[0,0.5],[1,0.5]];portConstraint=eastwest;rotatable=0;whiteSpace=wrap;html=1;fontStyle=1;fontFamily=Arial;fontSize=13;" parent="36" vertex="1">
          <mxGeometry y="60" width="180" height="30" as="geometry" />
        </mxCell>
        <mxCell id="39" value="Better participant experience" style="text;strokeColor=none;fillColor=#E8F5E9;align=left;verticalAlign=middle;spacingLeft=4;spacingRight=4;overflow=hidden;points=[[0,0.5],[1,0.5]];portConstraint=eastwest;rotatable=0;whiteSpace=wrap;html=1;fontStyle=1;fontFamily=Arial;fontSize=13;" parent="36" vertex="1">
          <mxGeometry y="90" width="180" height="30" as="geometry" />
        </mxCell>
        <mxCell id="40" value="Increased funder appeal" style="text;strokeColor=none;fillColor=#FFFFFF;align=left;verticalAlign=middle;spacingLeft=4;spacingRight=4;overflow=hidden;points=[[0,0.5],[1,0.5]];portConstraint=eastwest;rotatable=0;whiteSpace=wrap;html=1;fontStyle=1;fontFamily=Arial;fontSize=13;" parent="36" vertex="1">
          <mxGeometry y="120" width="180" height="30" as="geometry" />
        </mxCell>
        <mxCell id="41" value="&lt;b&gt;&lt;font style=&quot;font-size: 14px;&quot;&gt;CRASH-2 Example: 73% emissions reduction&lt;/font&gt;&lt;/b&gt;" style="rounded=1;whiteSpace=wrap;html=1;fillColor=#B22222;strokeColor=#B22222;fontColor=#FFFFFF;shadow=1;fontFamily=Arial;fontSize=12;" parent="1" vertex="1">
          <mxGeometry x="140" y="580" width="240" height="40" as="geometry" />
        </mxCell>
        <mxCell id="42" value="Source: BMJ Open: Carbon footprint of trials, 2023 &amp; MyGreenLab.org" style="text;html=1;strokeColor=none;fillColor=none;align=right;verticalAlign=middle;whiteSpace=wrap;rounded=0;fontColor=#666666;fontSize=11;fontStyle=2;fontFamily=Arial;" parent="1" vertex="1">
          <mxGeometry x="645" y="630" width="300" height="20" as="geometry" />
        </mxCell>
      </root>
    </mxGraphModel>
  </diagram>
</mxfile>
